<mxfile host="app.diagrams.net" modified="2023-07-20T02:01:39.366Z" agent="Mozilla/5.0 (Windows NT 10.0; Win64; x64) AppleWebKit/537.36 (KHTML, like Gecko) Chrome/115.0.0.0 Safari/537.36" etag="bqvK7oKwjQzMH0BcExcT" version="21.6.3" type="device">
  <diagram name="Page-1" id="jTXnP5EDODgPQkfzNVG3">
    <mxGraphModel dx="1434" dy="693" grid="1" gridSize="10" guides="1" tooltips="1" connect="1" arrows="1" fold="1" page="1" pageScale="1" pageWidth="827" pageHeight="1169" math="0" shadow="0">
      <root>
        <mxCell id="0" />
        <mxCell id="1" parent="0" />
        <mxCell id="_YkHg0DTGd_QuGl7lF-i-1" value="선택한 지역&lt;br&gt;좌표의&lt;br&gt;카카오지도(API)" style="ellipse;whiteSpace=wrap;html=1;" parent="1" vertex="1">
          <mxGeometry x="170" y="160" width="140" height="70" as="geometry" />
        </mxCell>
        <mxCell id="_YkHg0DTGd_QuGl7lF-i-2" value="사용자" style="shape=umlActor;verticalLabelPosition=bottom;verticalAlign=top;html=1;outlineConnect=0;" parent="1" vertex="1">
          <mxGeometry x="30" y="150" width="30" height="60" as="geometry" />
        </mxCell>
        <mxCell id="_YkHg0DTGd_QuGl7lF-i-3" value="&amp;lt;&amp;lt;include&amp;gt;&amp;gt;" style="html=1;verticalAlign=bottom;labelBackgroundColor=none;endArrow=open;endFill=0;dashed=1;rounded=0;exitX=0.5;exitY=0;exitDx=0;exitDy=0;entryX=0;entryY=0.614;entryDx=0;entryDy=0;entryPerimeter=0;" parent="1" source="_YkHg0DTGd_QuGl7lF-i-1" target="_YkHg0DTGd_QuGl7lF-i-4" edge="1">
          <mxGeometry width="160" relative="1" as="geometry">
            <mxPoint x="360" y="70" as="sourcePoint" />
            <mxPoint x="320" y="110" as="targetPoint" />
          </mxGeometry>
        </mxCell>
        <mxCell id="_YkHg0DTGd_QuGl7lF-i-4" value="선택한 지역 좌표와&lt;br&gt;마커종류로&lt;br&gt;마커들 배치" style="ellipse;whiteSpace=wrap;html=1;" parent="1" vertex="1">
          <mxGeometry x="320" y="50" width="140" height="70" as="geometry" />
        </mxCell>
        <mxCell id="_YkHg0DTGd_QuGl7lF-i-5" value="마커의&lt;br&gt;게시글리스트&lt;br&gt;보기" style="ellipse;whiteSpace=wrap;html=1;" parent="1" vertex="1">
          <mxGeometry x="380" y="160" width="140" height="70" as="geometry" />
        </mxCell>
        <mxCell id="_YkHg0DTGd_QuGl7lF-i-6" value="특정마커&lt;br&gt;선택" style="ellipse;whiteSpace=wrap;html=1;" parent="1" vertex="1">
          <mxGeometry x="540" y="60" width="140" height="70" as="geometry" />
        </mxCell>
        <mxCell id="_YkHg0DTGd_QuGl7lF-i-7" value="&amp;lt;&amp;lt;extend&amp;gt;&amp;gt;" style="html=1;verticalAlign=bottom;labelBackgroundColor=none;endArrow=open;endFill=0;dashed=1;rounded=0;entryX=1;entryY=0.5;entryDx=0;entryDy=0;exitX=0;exitY=0.5;exitDx=0;exitDy=0;" parent="1" source="_YkHg0DTGd_QuGl7lF-i-5" target="_YkHg0DTGd_QuGl7lF-i-1" edge="1">
          <mxGeometry width="160" relative="1" as="geometry">
            <mxPoint x="330" y="260" as="sourcePoint" />
            <mxPoint x="490" y="260" as="targetPoint" />
          </mxGeometry>
        </mxCell>
        <mxCell id="_YkHg0DTGd_QuGl7lF-i-8" value="&amp;lt;&amp;lt;include&amp;gt;&amp;gt;" style="html=1;verticalAlign=bottom;labelBackgroundColor=none;endArrow=open;endFill=0;dashed=1;rounded=0;exitX=0.786;exitY=0.071;exitDx=0;exitDy=0;exitPerimeter=0;" parent="1" source="_YkHg0DTGd_QuGl7lF-i-5" target="_YkHg0DTGd_QuGl7lF-i-6" edge="1">
          <mxGeometry width="160" relative="1" as="geometry">
            <mxPoint x="250" y="170" as="sourcePoint" />
            <mxPoint x="330" y="103" as="targetPoint" />
          </mxGeometry>
        </mxCell>
        <mxCell id="_YkHg0DTGd_QuGl7lF-i-9" value="게시글&lt;br&gt;상세보기" style="ellipse;whiteSpace=wrap;html=1;" parent="1" vertex="1">
          <mxGeometry x="301" y="288" width="140" height="70" as="geometry" />
        </mxCell>
        <mxCell id="8m8fqD_2h5Pv4b8AxJOz-1" value="&amp;lt;&amp;lt;extend&amp;gt;&amp;gt;" style="html=1;verticalAlign=bottom;labelBackgroundColor=none;endArrow=open;endFill=0;dashed=1;rounded=0;entryX=0.5;entryY=1;entryDx=0;entryDy=0;exitX=0.5;exitY=0;exitDx=0;exitDy=0;" edge="1" parent="1" source="_YkHg0DTGd_QuGl7lF-i-9" target="_YkHg0DTGd_QuGl7lF-i-5">
          <mxGeometry width="160" relative="1" as="geometry">
            <mxPoint x="390" y="205" as="sourcePoint" />
            <mxPoint x="320" y="205" as="targetPoint" />
          </mxGeometry>
        </mxCell>
        <mxCell id="8m8fqD_2h5Pv4b8AxJOz-2" value="게시글&lt;br&gt;작성하기" style="ellipse;whiteSpace=wrap;html=1;" vertex="1" parent="1">
          <mxGeometry x="570" y="260" width="140" height="70" as="geometry" />
        </mxCell>
        <mxCell id="8m8fqD_2h5Pv4b8AxJOz-3" value="&amp;lt;&amp;lt;extend&amp;gt;&amp;gt;" style="html=1;verticalAlign=bottom;labelBackgroundColor=none;endArrow=open;endFill=0;dashed=1;rounded=0;entryX=1;entryY=1;entryDx=0;entryDy=0;exitX=0;exitY=0;exitDx=0;exitDy=0;" edge="1" parent="1" source="8m8fqD_2h5Pv4b8AxJOz-2" target="_YkHg0DTGd_QuGl7lF-i-5">
          <mxGeometry width="160" relative="1" as="geometry">
            <mxPoint x="460" y="300" as="sourcePoint" />
            <mxPoint x="460" y="240" as="targetPoint" />
          </mxGeometry>
        </mxCell>
        <mxCell id="8m8fqD_2h5Pv4b8AxJOz-4" value="게시글&lt;br&gt;수정하기" style="ellipse;whiteSpace=wrap;html=1;" vertex="1" parent="1">
          <mxGeometry x="680" y="410" width="140" height="70" as="geometry" />
        </mxCell>
        <mxCell id="8m8fqD_2h5Pv4b8AxJOz-5" value="게시글&lt;br&gt;삭제하기" style="ellipse;whiteSpace=wrap;html=1;" vertex="1" parent="1">
          <mxGeometry x="630" y="515" width="140" height="70" as="geometry" />
        </mxCell>
        <mxCell id="8m8fqD_2h5Pv4b8AxJOz-6" value="답글작성" style="ellipse;whiteSpace=wrap;html=1;" vertex="1" parent="1">
          <mxGeometry x="70" y="270" width="140" height="70" as="geometry" />
        </mxCell>
        <mxCell id="8m8fqD_2h5Pv4b8AxJOz-7" value="답글삭제" style="ellipse;whiteSpace=wrap;html=1;" vertex="1" parent="1">
          <mxGeometry x="20" y="610" width="140" height="70" as="geometry" />
        </mxCell>
        <mxCell id="8m8fqD_2h5Pv4b8AxJOz-8" value="답글변경" style="ellipse;whiteSpace=wrap;html=1;" vertex="1" parent="1">
          <mxGeometry x="190" y="610" width="140" height="70" as="geometry" />
        </mxCell>
        <mxCell id="8m8fqD_2h5Pv4b8AxJOz-9" value="내 답글&lt;br&gt;관리" style="ellipse;whiteSpace=wrap;html=1;" vertex="1" parent="1">
          <mxGeometry x="80" y="510" width="140" height="70" as="geometry" />
        </mxCell>
        <mxCell id="8m8fqD_2h5Pv4b8AxJOz-10" value="내 게시글&lt;br&gt;관리" style="ellipse;whiteSpace=wrap;html=1;" vertex="1" parent="1">
          <mxGeometry x="500" y="400" width="140" height="70" as="geometry" />
        </mxCell>
        <mxCell id="8m8fqD_2h5Pv4b8AxJOz-11" value="&amp;lt;&amp;lt;extend&amp;gt;&amp;gt;" style="html=1;verticalAlign=bottom;labelBackgroundColor=none;endArrow=open;endFill=0;dashed=1;rounded=0;entryX=0.964;entryY=0.786;entryDx=0;entryDy=0;exitX=0;exitY=0;exitDx=0;exitDy=0;entryPerimeter=0;" edge="1" parent="1" source="8m8fqD_2h5Pv4b8AxJOz-10" target="_YkHg0DTGd_QuGl7lF-i-9">
          <mxGeometry x="0.0805" y="8" width="160" relative="1" as="geometry">
            <mxPoint x="530" y="358" as="sourcePoint" />
            <mxPoint x="438" y="308" as="targetPoint" />
            <mxPoint as="offset" />
          </mxGeometry>
        </mxCell>
        <mxCell id="8m8fqD_2h5Pv4b8AxJOz-12" value="" style="endArrow=block;startArrow=none;endFill=0;startFill=0;endSize=8;html=1;verticalAlign=bottom;dashed=1;labelBackgroundColor=none;rounded=0;entryX=1.014;entryY=0.614;entryDx=0;entryDy=0;entryPerimeter=0;exitX=0;exitY=0.5;exitDx=0;exitDy=0;" edge="1" parent="1" source="8m8fqD_2h5Pv4b8AxJOz-4" target="8m8fqD_2h5Pv4b8AxJOz-10">
          <mxGeometry width="160" relative="1" as="geometry">
            <mxPoint x="330" y="390" as="sourcePoint" />
            <mxPoint x="490" y="390" as="targetPoint" />
          </mxGeometry>
        </mxCell>
        <mxCell id="8m8fqD_2h5Pv4b8AxJOz-13" value="" style="endArrow=block;startArrow=none;endFill=0;startFill=0;endSize=8;html=1;verticalAlign=bottom;dashed=1;labelBackgroundColor=none;rounded=0;entryX=1;entryY=1;entryDx=0;entryDy=0;exitX=0.307;exitY=0.043;exitDx=0;exitDy=0;exitPerimeter=0;" edge="1" parent="1" source="8m8fqD_2h5Pv4b8AxJOz-5" target="8m8fqD_2h5Pv4b8AxJOz-10">
          <mxGeometry width="160" relative="1" as="geometry">
            <mxPoint x="660" y="445" as="sourcePoint" />
            <mxPoint x="612" y="433" as="targetPoint" />
          </mxGeometry>
        </mxCell>
        <mxCell id="8m8fqD_2h5Pv4b8AxJOz-14" value="답글&lt;br&gt;보기" style="ellipse;whiteSpace=wrap;html=1;" vertex="1" parent="1">
          <mxGeometry x="30" y="410" width="140" height="70" as="geometry" />
        </mxCell>
        <mxCell id="8m8fqD_2h5Pv4b8AxJOz-15" value="&amp;lt;&amp;lt;extend&amp;gt;&amp;gt;" style="html=1;verticalAlign=bottom;labelBackgroundColor=none;endArrow=open;endFill=0;dashed=1;rounded=0;entryX=0;entryY=0.5;entryDx=0;entryDy=0;exitX=1;exitY=0.5;exitDx=0;exitDy=0;" edge="1" parent="1" source="8m8fqD_2h5Pv4b8AxJOz-6" target="_YkHg0DTGd_QuGl7lF-i-9">
          <mxGeometry width="160" relative="1" as="geometry">
            <mxPoint x="381" y="298" as="sourcePoint" />
            <mxPoint x="460" y="240" as="targetPoint" />
          </mxGeometry>
        </mxCell>
        <mxCell id="8m8fqD_2h5Pv4b8AxJOz-16" value="&amp;lt;&amp;lt;extend&amp;gt;&amp;gt;" style="html=1;verticalAlign=bottom;labelBackgroundColor=none;endArrow=open;endFill=0;dashed=1;rounded=0;entryX=0.086;entryY=0.843;entryDx=0;entryDy=0;exitX=0.736;exitY=0.014;exitDx=0;exitDy=0;entryPerimeter=0;exitPerimeter=0;" edge="1" parent="1" source="8m8fqD_2h5Pv4b8AxJOz-14" target="_YkHg0DTGd_QuGl7lF-i-9">
          <mxGeometry x="-0.4632" y="4" width="160" relative="1" as="geometry">
            <mxPoint x="230" y="345" as="sourcePoint" />
            <mxPoint x="311" y="333" as="targetPoint" />
            <mxPoint as="offset" />
          </mxGeometry>
        </mxCell>
        <mxCell id="8m8fqD_2h5Pv4b8AxJOz-17" value="&amp;lt;&amp;lt;extend&amp;gt;&amp;gt;" style="html=1;verticalAlign=bottom;labelBackgroundColor=none;endArrow=open;endFill=0;dashed=1;rounded=0;entryX=0.657;entryY=0.986;entryDx=0;entryDy=0;exitX=0.357;exitY=-0.043;exitDx=0;exitDy=0;entryPerimeter=0;exitPerimeter=0;" edge="1" parent="1" source="8m8fqD_2h5Pv4b8AxJOz-9" target="8m8fqD_2h5Pv4b8AxJOz-14">
          <mxGeometry width="160" relative="1" as="geometry">
            <mxPoint x="243" y="391" as="sourcePoint" />
            <mxPoint x="323" y="357" as="targetPoint" />
          </mxGeometry>
        </mxCell>
        <mxCell id="8m8fqD_2h5Pv4b8AxJOz-18" value="" style="endArrow=block;startArrow=none;endFill=0;startFill=0;endSize=8;html=1;verticalAlign=bottom;dashed=1;labelBackgroundColor=none;rounded=0;entryX=0.393;entryY=0.986;entryDx=0;entryDy=0;exitX=0.564;exitY=-0.029;exitDx=0;exitDy=0;exitPerimeter=0;entryPerimeter=0;" edge="1" parent="1" source="8m8fqD_2h5Pv4b8AxJOz-7" target="8m8fqD_2h5Pv4b8AxJOz-9">
          <mxGeometry width="160" relative="1" as="geometry">
            <mxPoint x="474" y="550" as="sourcePoint" />
            <mxPoint x="380" y="507" as="targetPoint" />
          </mxGeometry>
        </mxCell>
        <mxCell id="8m8fqD_2h5Pv4b8AxJOz-19" value="" style="endArrow=block;startArrow=none;endFill=0;startFill=0;endSize=8;html=1;verticalAlign=bottom;dashed=1;labelBackgroundColor=none;rounded=0;entryX=0.793;entryY=0.957;entryDx=0;entryDy=0;exitX=0.179;exitY=0.029;exitDx=0;exitDy=0;exitPerimeter=0;entryPerimeter=0;" edge="1" parent="1" source="8m8fqD_2h5Pv4b8AxJOz-8" target="8m8fqD_2h5Pv4b8AxJOz-9">
          <mxGeometry width="160" relative="1" as="geometry">
            <mxPoint x="250" y="618" as="sourcePoint" />
            <mxPoint x="259" y="576" as="targetPoint" />
          </mxGeometry>
        </mxCell>
        <mxCell id="8m8fqD_2h5Pv4b8AxJOz-20" value="로그인" style="ellipse;whiteSpace=wrap;html=1;" vertex="1" parent="1">
          <mxGeometry x="310" y="480" width="140" height="70" as="geometry" />
        </mxCell>
        <mxCell id="8m8fqD_2h5Pv4b8AxJOz-21" value="&amp;lt;&amp;lt;include&amp;gt;&amp;gt;" style="html=1;verticalAlign=bottom;labelBackgroundColor=none;endArrow=open;endFill=0;dashed=1;rounded=0;exitX=1;exitY=1;exitDx=0;exitDy=0;entryX=0.5;entryY=0;entryDx=0;entryDy=0;" edge="1" parent="1" source="8m8fqD_2h5Pv4b8AxJOz-6" target="8m8fqD_2h5Pv4b8AxJOz-20">
          <mxGeometry width="160" relative="1" as="geometry">
            <mxPoint x="500" y="175" as="sourcePoint" />
            <mxPoint x="574" y="132" as="targetPoint" />
          </mxGeometry>
        </mxCell>
        <mxCell id="8m8fqD_2h5Pv4b8AxJOz-22" value="&amp;lt;&amp;lt;include&amp;gt;&amp;gt;" style="html=1;verticalAlign=bottom;labelBackgroundColor=none;endArrow=open;endFill=0;dashed=1;rounded=0;exitX=1;exitY=0.5;exitDx=0;exitDy=0;entryX=0;entryY=0.5;entryDx=0;entryDy=0;" edge="1" parent="1" source="8m8fqD_2h5Pv4b8AxJOz-9" target="8m8fqD_2h5Pv4b8AxJOz-20">
          <mxGeometry width="160" relative="1" as="geometry">
            <mxPoint x="199" y="358" as="sourcePoint" />
            <mxPoint x="400" y="490" as="targetPoint" />
          </mxGeometry>
        </mxCell>
        <mxCell id="8m8fqD_2h5Pv4b8AxJOz-23" value="&amp;lt;&amp;lt;include&amp;gt;&amp;gt;" style="html=1;verticalAlign=bottom;labelBackgroundColor=none;endArrow=open;endFill=0;dashed=1;rounded=0;exitX=0.029;exitY=0.671;exitDx=0;exitDy=0;entryX=0.743;entryY=0;entryDx=0;entryDy=0;entryPerimeter=0;exitPerimeter=0;" edge="1" parent="1" source="8m8fqD_2h5Pv4b8AxJOz-2" target="8m8fqD_2h5Pv4b8AxJOz-20">
          <mxGeometry x="-0.5784" y="10" width="160" relative="1" as="geometry">
            <mxPoint x="220" y="545" as="sourcePoint" />
            <mxPoint x="330" y="525" as="targetPoint" />
            <mxPoint as="offset" />
          </mxGeometry>
        </mxCell>
        <mxCell id="8m8fqD_2h5Pv4b8AxJOz-24" value="&amp;lt;&amp;lt;include&amp;gt;&amp;gt;" style="html=1;verticalAlign=bottom;labelBackgroundColor=none;endArrow=open;endFill=0;dashed=1;rounded=0;exitX=0.214;exitY=0.971;exitDx=0;exitDy=0;entryX=0.914;entryY=0.129;entryDx=0;entryDy=0;entryPerimeter=0;exitPerimeter=0;" edge="1" parent="1" source="8m8fqD_2h5Pv4b8AxJOz-10" target="8m8fqD_2h5Pv4b8AxJOz-20">
          <mxGeometry width="160" relative="1" as="geometry">
            <mxPoint x="584" y="317" as="sourcePoint" />
            <mxPoint x="434" y="490" as="targetPoint" />
          </mxGeometry>
        </mxCell>
        <mxCell id="8m8fqD_2h5Pv4b8AxJOz-25" value="" style="endArrow=open;endFill=1;endSize=12;html=1;rounded=0;entryX=0;entryY=0.5;entryDx=0;entryDy=0;" edge="1" parent="1" source="_YkHg0DTGd_QuGl7lF-i-2" target="_YkHg0DTGd_QuGl7lF-i-1">
          <mxGeometry width="160" relative="1" as="geometry">
            <mxPoint x="330" y="390" as="sourcePoint" />
            <mxPoint x="490" y="390" as="targetPoint" />
          </mxGeometry>
        </mxCell>
      </root>
    </mxGraphModel>
  </diagram>
</mxfile>
